<svg xmlns="http://www.w3.org/2000/svg" width="24" height="24" viewBox="0 0 24 24"><path fill="currentColor" fill-rule="evenodd" d="M11.27 8.188c-1.7 0-2.801 1.44-2.801 3.656c0 2.203 1.09 3.633 2.789 3.633c1.734 0 2.847-1.454 2.847-3.692c0-2.203-1.09-3.598-2.835-3.598zM11.645 2c5.135 0 9.375 3.527 9.375 8.719c0 3.726-1.547 6.117-4.125 6.117c-1.395 0-2.497-.844-2.672-2.156h-.082c-.528 1.336-1.618 2.074-3.07 2.074c-2.415 0-4.055-1.992-4.055-4.945c0-2.883 1.664-4.875 4.054-4.875c1.36 0 2.543.738 2.977 1.886h.082V7.168h1.36v6.703c0 1.066.562 1.77 1.628 1.77c1.559 0 2.625-1.793 2.625-4.946c0-4.476-3.504-7.52-8.097-7.52c-4.594 0-8.356 3.35-8.356 8.598c0 4.875 4.014 8.59 8.484 8.59c1.582 0 3.094-.199 3.891-.515v1.16c-.95.328-2.332.515-3.902.515C6.198 21.523 2 17.326 2 11.727A9.66 9.66 0 0 1 11.645 2"/></svg>
