<svg xmlns="http://www.w3.org/2000/svg" width="24" height="24" viewBox="0 0 24 24"><g fill="none" fill-rule="evenodd"><path d="m12.594 23.258l-.012.002l-.071.035l-.02.004l-.014-.004l-.071-.036q-.016-.004-.024.006l-.004.01l-.017.428l.005.02l.01.013l.104.074l.015.004l.012-.004l.104-.074l.012-.016l.004-.017l-.017-.427q-.004-.016-.016-.018m.264-.113l-.014.002l-.184.093l-.01.01l-.003.011l.018.43l.005.012l.008.008l.201.092q.019.005.029-.008l.004-.014l-.034-.614q-.005-.019-.02-.022m-.715.002a.02.02 0 0 0-.027.006l-.006.014l-.034.614q.001.018.017.024l.015-.002l.201-.093l.01-.008l.003-.011l.018-.43l-.003-.012l-.01-.01z"/><path fill="currentColor" d="M12 2a1 1 0 0 1 1 1v1.062a8 8 0 0 1 2.104.562l.53-.918a1 1 0 1 1 1.732 1l-.531.92c.58.44 1.098.959 1.54 1.54l.92-.532a1 1 0 1 1 1 1.732l-.92.53c.279.661.471 1.367.563 2.104H21a1 1 0 1 1 0 2h-1.062a8 8 0 0 1-.562 2.104l.918.53a1 1 0 1 1-1 1.732l-.92-.531a8 8 0 0 1-1.54 1.54l.532.92a1 1 0 1 1-1.732 1l-.53-.92a8 8 0 0 1-2.104.563V21a1 1 0 1 1-2 0v-1.062a8 8 0 0 1-2.104-.562l-.53.918a1 1 0 1 1-1.732-1l.531-.92a8 8 0 0 1-1.54-1.54l-.92.532a1 1 0 1 1-1-1.732l.92-.53A8 8 0 0 1 4.061 13H3a1 1 0 1 1 0-2h1.062a8 8 0 0 1 .562-2.104l-.918-.53a1 1 0 0 1 1-1.732l.92.531c.44-.58.959-1.098 1.54-1.54l-.532-.92a1 1 0 0 1 1.732-1l.53.92A8 8 0 0 1 11 4.061V3a1 1 0 0 1 1-1m0 11.155l-4.624 2.67a6 6 0 0 0 1.588 1.351l.073.043A6 6 0 0 0 12 18c.97 0 1.886-.23 2.697-.639l.34-.185a6 6 0 0 0 1.587-1.352zm-1-7.072a6 6 0 0 0-1.703.559l-.26.14l-.073.042a6 6 0 0 0-1.978 1.88l-.162.26l-.042.073A6 6 0 0 0 6 12c0 .63.097 1.24.278 1.81l.097.283L11 11.423zm2 0v5.34l4.625 2.67A6 6 0 0 0 18 12c0-.97-.23-1.886-.639-2.697l-.143-.266l-.032-.055l-.01-.018a6 6 0 0 0-1.88-1.978l-.333-.205a6 6 0 0 0-1.664-.64z"/></g></svg>
